# xmcd
#
# Track frame offsets:
#	183
#	15568
#	31280
#	52415
#	76300
#	104375
#	128383
#	144078
#	162280
#	179865
#	197953
#	216918
#	230175
#	249145
#	263113
#	281750
#	309813
#
# Disc length: 4416 seconds
#
# Revision: 0
# Processed by: cddbd v1.4b42PL1 Copyright (c) Steve Scherf et al.
# Submitted via: EasyCDDAExtractor 4.5.0.2
#
DISCID=ef113e11
DTITLE=Various Artist - Absolute CELTIC - CD3
DYEAR=2001
DGENRE=88
TTITLE0=alan stivell-suite sudarmoricaine
TTITLE1=altan-andy de jarlis
TTITLE2=tannas-mauread nan cuiread
TTITLE3=berroguetto-transito
TTITLE4=iarla o lionard-search
TTITLE5=christina pato--noite de lua
TTITLE6=john faulkner-child owlet
TTITLE7=johnny connoly-that's right tool
TTITLE8=marcas o'murchu-farewell to kennedy
TTITLE9=john beag-bantry's girl lament
TTITLE10=llan de cubel-farangu puntiau
TTITLE11=paddy canny-the gallowglass
TTITLE12=meav-ailen duinn
TTITLE13=paddy reilly-the wild rover
TTITLE14=andy m.stewart and manus lunny-take her in her arms
TTITLE15=deanta-where are you
TTITLE16=kornog-jesuimont
EXTD=
EXTT0=
EXTT1=
EXTT2=
EXTT3=
EXTT4=
EXTT5=
EXTT6=
EXTT7=
EXTT8=
EXTT9=
EXTT10=
EXTT11=
EXTT12=
EXTT13=
EXTT14=
EXTT15=
EXTT16=
PLAYORDER=
